<svg width="100%" height="100%" viewBox="0 0 2481 3508" version="1.1" xmlns="http://www.w3.org/2000/svg" xmlns:xlink="http://www.w3.org/1999/xlink" xml:space="preserve" xmlns:serif="http://www.serif.com/" style="fill-rule:evenodd;clip-rule:evenodd;stroke-linejoin:round;stroke-miterlimit:2;">
    <g id="Página-1" serif:id="Página 1" transform="matrix(4.16667,0,0,4.16667,0,0)">
        <rect x="0" y="0" width="595.276" height="841.89" style="fill:none;"/>
        <clipPath id="_clip1">
            <rect x="0" y="0" width="595.276" height="841.89"/>
        </clipPath>
        <g clip-path="url(#_clip1)">
            <g id="Diseño">
                <g transform="matrix(1,0,0,1,-11.3386,-11.338)">
                    <rect x="0" y="0" width="617.953" height="864.567" style="fill:rgb(233,52,86);"/>
                </g>
                <g transform="matrix(1,0,0,1,415.449,448.608)">
                    <path d="M0,404.621L191.165,404.621L190.774,0L0,404.621Z" style="fill:rgb(255,229,234);fill-rule:nonzero;"/>
                </g>
                <g transform="matrix(1,0,0,1,415.449,631.321)">
                    <path d="M0,221.908L191.165,221.908L191.165,183.586L104.627,0L0,221.908Z" style="fill:white;fill-rule:nonzero;"/>
                </g>
                <g transform="matrix(0.146116,0,0,0.146116,473.432,730.827)">
                    <path d="M386.065,259.578C385.496,260.68 384.347,261.433 383.023,261.433L379.635,258.494L379.738,257.054L379.978,256.449C379.996,256.415 380.093,256.231 380.256,255.925C381.719,253.181 389.078,239.436 389.356,238.858C391.329,234.764 393.415,230.712 395.527,226.686C401.802,214.722 407.352,202.385 414.559,190.921C438.119,153.444 472.592,117.171 520.632,117.171C522.52,117.171 524.053,118.704 524.053,120.592C524.053,122.481 522.52,124.014 520.632,124.014C475.04,124.014 442.713,158.996 420.353,194.563C413.241,205.876 407.78,218.059 401.587,229.865C399.512,233.822 397.461,237.804 395.522,241.829C395.24,242.415 387.779,256.361 386.296,259.144C386.171,259.377 386.065,259.578 386.065,259.578Z" style="fill:rgb(235,50,86);"/>
                    <path d="M516.747,123.371C516.663,123.075 516.619,122.763 516.619,122.44L516.885,120.886L517.519,119.88L518.325,119.225L519.312,118.837L520.481,118.782L521.644,119.146L522.574,119.859L523.129,120.666L523.476,121.84C523.596,122.686 523.907,126.99 523.988,127.72C524.513,132.44 524.2,137.838 522.415,142.296C521.571,144.404 519.818,146.756 517.619,149.19C514.842,152.265 511.323,155.564 508.721,158.87C507.516,160.401 506.509,161.91 506.007,163.408C505.69,164.354 505.59,165.281 506.014,166.164C508.187,170.691 511.449,176.136 512.721,181.591C513.727,185.902 513.569,190.221 511.308,194.264C509.851,196.869 505.517,200.473 502.133,203.884C501.232,204.792 500.416,205.682 499.816,206.539C499.634,206.8 499.452,207.035 499.332,207.263C499.644,207.656 500.273,208.433 500.754,208.928C501.995,210.208 503.259,211.427 503.794,212.193C508.229,218.55 509.718,226.55 506.228,233.726C504.028,238.251 499.815,241.097 495.631,243.834C492.619,245.805 489.547,247.623 488.402,250.948C487.358,253.982 487.66,257.17 487.964,260.389C488.347,264.443 488.785,268.542 487.937,272.544C485.449,284.286 479.079,292.133 470.913,295.523C462.765,298.905 452.635,297.925 442.345,291.386C440.751,290.373 440.279,288.257 441.292,286.663C442.305,285.069 444.421,284.597 446.015,285.61C454.058,290.721 461.921,291.845 468.289,289.202C474.639,286.566 479.307,280.256 481.241,271.126C481.945,267.802 481.468,264.399 481.15,261.032C480.753,256.831 480.568,252.681 481.931,248.72C483.573,243.951 487.563,240.935 491.884,238.107C495.032,236.047 498.418,234.138 500.074,230.733C502.448,225.85 501.199,220.435 498.181,216.109C497.462,215.079 495.153,213.163 493.891,211.454C493.342,210.711 492.935,209.978 492.694,209.315L492.398,208.106L492.377,207.118C492.568,204.81 494.487,201.873 497.274,199.064C500.19,196.124 504.079,193.168 505.335,190.923C507.118,187.734 506.559,184.26 505.397,180.881C503.955,176.692 501.524,172.625 499.844,169.126C497.687,164.631 499.47,159.557 503.343,154.637C506.037,151.215 509.665,147.786 512.54,144.603C514.109,142.866 515.459,141.257 516.061,139.752C517.441,136.306 517.592,132.124 517.186,128.475C517.125,127.919 516.857,124.699 516.747,123.371Z" style="fill:rgb(235,50,86);"/>
                    <path d="M442.274,291.004C441.834,290.429 441.572,289.709 441.572,288.929L441.849,287.572L442.607,286.464L443.689,285.751L444.929,285.49L445.732,285.568L446.521,285.844L447.255,286.331L447.767,286.879C448.097,287.313 449.815,290.806 450.154,291.597C451.614,295.003 452.009,298.459 452.467,302.095C453.831,312.921 452.645,326.778 443.674,334.33C435.221,341.445 425.179,342.8 415.213,338.099C413.471,337.277 409.556,334.939 406.765,333.237C406.763,333.395 406.759,333.524 406.753,333.612C406.445,338.314 405.337,344.061 403.303,348.341C401.531,352.069 398.629,355.038 395.804,357.985C389.493,364.571 383.847,367.623 378.481,368.144C370.57,368.911 362.817,364.085 353.676,354.95C352.34,353.615 352.339,351.447 353.674,350.111C355.009,348.775 357.177,348.774 358.513,350.109C362.375,353.968 365.878,357.024 369.269,359.014C372.178,360.721 374.954,361.61 377.821,361.332C381.92,360.934 386.041,358.281 390.863,353.25C393.183,350.829 395.666,348.467 397.121,345.404C398.81,341.851 399.668,337.067 399.924,333.164C399.978,332.339 399.715,330.072 400.01,328.564L400.373,327.334L400.884,326.388L401.611,325.569L402.667,324.883L403.733,324.58L404.798,324.585C405.296,324.65 406.053,324.868 406.965,325.305C409.715,326.624 415.496,330.665 418.133,331.91C425.534,335.4 432.989,334.378 439.266,329.094C446.494,323.01 446.776,311.672 445.677,302.95C445.3,299.959 445.066,297.097 443.864,294.294C443.665,293.831 442.576,291.618 442.274,291.004ZM447.671,291.06C448.032,290.632 448.416,289.969 448.416,288.929C448.416,289.735 448.137,290.475 447.671,291.06Z" style="fill:rgb(235,50,86);"/>
                    <path d="M297.744,329.035C297.155,329.514 296.404,329.802 295.586,329.802L294.304,329.577L293.561,329.193L292.939,328.65L292.344,327.728L292.063,326.581L292.108,325.741L292.403,324.836L293.013,323.959L293.755,323.357C294.959,322.603 306.631,318.736 307.953,318.317C310.735,317.436 313.464,316.5 316.135,315.307C324.16,311.722 330.802,306.27 338.105,301.498C350.908,293.132 368.049,272.795 377.521,260.578C381.694,255.196 389.571,237.482 392.854,232.407C393.88,230.821 396,230.366 397.586,231.392C399.172,232.417 399.627,234.537 398.601,236.123C395.259,241.291 387.178,259.293 382.93,264.772C373.081,277.475 355.161,298.528 341.849,307.227C334.241,312.198 327.286,317.822 318.926,321.556C316.018,322.854 313.049,323.882 310.02,324.841C308.973,325.173 299.692,328.365 297.744,329.035ZM297.178,323.35C296.795,323.132 296.279,322.958 295.586,322.958C296.161,322.958 296.702,323.1 297.178,323.35Z" style="fill:rgb(235,50,86);"/>
                    <path d="M287.342,277.141L290.624,278.01C292.519,277.883 294.4,277.958 296.301,277.988C301.984,278.08 307.466,277.624 313.076,276.761C325.544,274.844 338.507,270.11 349.344,263.386C340.016,263.627 330.276,259.134 324.829,251.395L324.327,251.117L323.62,250.488L323.017,249.545L322.71,248.268L322.791,247.296L323.152,246.342L323.769,245.53L324.55,244.946L325.796,244.528L326.914,244.54L327.823,244.805L328.233,245.032C331.259,244.965 336.334,244.653 338.341,243.701C344.491,240.784 351.848,236.741 356.862,231.282C355.367,230.925 353.934,230.289 352.638,229.453C346.867,225.732 344.008,219.538 342.044,213.243C341.827,212.547 340.761,209.37 340.717,207.732L340.782,206.7L341.046,205.758L341.899,204.476C343.239,203.146 345.408,203.154 346.738,204.495C347.621,205.385 347.914,206.639 347.619,207.771C347.82,208.504 348.456,210.814 348.578,211.205C350.07,215.988 351.961,220.873 356.347,223.701C357.432,224.401 358.706,224.895 359.997,224.735C360.237,224.623 361.694,223.946 362.239,223.745L363.303,223.473L364.275,223.469L365.225,223.726L365.993,224.175L366.598,224.77L367.045,225.499L367.363,227.011L367.239,227.915L366.945,228.689C362.124,238.406 350.631,245.446 341.275,249.884C339.787,250.591 336.972,251.097 334.13,251.425C338.703,255.166 344.883,257.031 350.659,256.451C353.626,256.153 356.639,255.255 359.457,254.317C360.765,253.881 362.126,253.433 363.363,252.815L364.24,252.475L365.729,252.43L366.504,252.677L367.196,253.097L367.952,253.921L368.423,255.034L368.478,256.245L368.147,257.322C367.238,259.138 365.428,260.969 363.236,262.596C360.624,264.535 357.471,266.244 355.575,267.512C343.471,275.605 328.488,281.316 314.117,283.526C308.122,284.447 302.264,284.929 296.191,284.831C294.357,284.802 292.544,284.708 290.713,284.867L289.713,284.818C289.01,284.701 286.318,284.024 285.064,283.622L283.989,283.197L283.189,282.628L282.603,281.903L282.187,280.869L282.105,280.062L282.239,279.169L282.698,278.193L283.554,277.32L284.395,276.883L285.622,276.678C286.249,276.678 286.836,276.847 287.342,277.141ZM287.706,282.813C287.129,283.257 286.406,283.521 285.622,283.521C286.635,283.521 287.287,283.175 287.706,282.813Z" style="fill:rgb(235,50,86);"/>
                    <path d="M367.439,189.731C366.149,189.721 364.88,189.549 363.69,189.044C361.519,188.122 359.622,186.342 358.235,184.107C356.32,181.024 355.409,177.106 355.789,173.996C356.125,171.247 357.531,168.971 359.532,167.084C361.83,164.918 364.987,163.301 367.411,161.866C372.841,158.65 379.165,153.436 382.165,147.838C384.372,143.721 384.215,138.52 382.651,134.19C381.828,131.913 380.394,129.191 379.797,126.52C379.242,124.033 379.333,121.58 380.481,119.336C381.907,116.548 384.75,114.51 388.23,113.064C392.187,111.421 397.018,110.527 400.072,109.158C411.622,103.982 419.635,92.02 418.365,79.223C418.178,77.344 419.553,75.666 421.432,75.48C423.312,75.293 424.989,76.668 425.175,78.547C426.735,94.262 417.055,109.047 402.871,115.403C400.229,116.587 396.316,117.454 392.706,118.69C390.116,119.578 387.58,120.485 386.574,122.452C386.01,123.554 386.358,124.787 386.744,126.009C387.396,128.071 388.452,130.106 389.087,131.865C391.29,137.96 391.304,145.275 388.197,151.071C384.656,157.679 377.309,163.958 370.898,167.754C369.15,168.79 366.936,169.892 365.099,171.322C363.883,172.267 362.766,173.319 362.583,174.826C362.405,176.276 362.802,178.026 363.543,179.571C364.202,180.946 365.12,182.216 366.364,182.744C367.012,183.019 367.718,182.983 368.424,182.928C369.662,182.833 370.912,182.586 372.091,182.475C372.653,182.422 373.783,182.4 373.783,182.4L373.806,185.224L374.093,185.396L377.03,187.152L376.771,187.584C375.542,189.631 372.495,194.638 371.155,196.616C368.412,200.67 362.643,206.781 356.492,209.709C351.62,212.029 346.534,212.406 342.145,209.473C340.575,208.423 340.152,206.296 341.202,204.726C342.251,203.156 344.378,202.733 345.948,203.783C348.275,205.338 350.967,204.759 353.55,203.53C358.577,201.137 363.246,196.093 365.488,192.78C365.969,192.07 366.677,190.954 367.439,189.731Z" style="fill:rgb(235,50,86);"/>
                    <path d="M311.973,91.297C311.398,91.734 310.681,91.993 309.904,91.993C308.016,91.993 306.482,90.46 306.482,88.571L306.745,87.238L307.487,86.099L308.549,85.31C308.893,85.128 309.437,84.905 310.174,84.691C317.406,82.587 353.606,78.157 354.411,78.13C361.515,77.887 368.829,78.331 375.864,79.357C394.164,82.026 403.94,79.269 420.889,75.032C422.722,74.574 424.581,75.689 425.039,77.521C425.497,79.354 424.382,81.213 422.549,81.671C404.607,86.157 394.248,88.955 374.876,86.129C368.242,85.161 361.344,84.74 354.645,84.969C353.871,84.996 319.043,89.238 312.086,91.262C312.051,91.272 312.012,91.284 311.973,91.297ZM313.265,89.218C313.308,88.999 313.326,88.783 313.326,88.571C313.326,88.792 313.305,89.009 313.265,89.218Z" style="fill:rgb(235,50,86);"/>
                    <path d="M365.765,85.163C364.602,85.117 355.469,84.78 350.147,85.243C346.894,85.527 337.959,86.604 334.721,86.953C325.698,87.929 316.132,89.493 307.579,92.583C279.409,102.759 256.825,115.171 240.283,141.241C233.35,152.167 226.991,163.291 223.178,175.75C219.589,187.479 218.17,199.197 217.737,211.392C216.929,234.221 218.104,264.51 228.508,288.327C235.196,303.637 245.741,316.245 262.306,322.04C268.688,324.273 279.125,326.041 287.713,324.161C289.558,323.757 291.383,324.927 291.787,326.772C292.191,328.617 291.021,330.443 289.176,330.847C279.332,333.002 267.362,331.059 260.046,328.5C241.584,322.041 229.69,308.13 222.236,291.066C211.426,266.32 210.057,234.869 210.898,211.15C211.351,198.352 212.867,186.057 216.634,173.747C220.628,160.696 227.242,149.02 234.504,137.575C251.927,110.116 275.584,96.864 305.254,86.146C314.311,82.875 324.431,81.182 333.986,80.149C337.253,79.796 346.27,78.711 349.552,78.425C355.754,77.885 365.046,78.174 366.704,78.373L367.695,78.596L368.838,79.285L369.569,80.227L369.934,81.369L369.809,82.845L369.497,83.554L368.96,84.25C368.094,85.116 366.877,85.42 365.765,85.163ZM363.715,83.762C363.511,83.464 363.36,83.141 363.26,82.806C363.351,83.12 363.493,83.444 363.715,83.762ZM363.124,82.007C363.075,81.073 363.408,80.123 364.121,79.41C363.29,80.241 363.066,81.147 363.124,82.007Z" style="fill:rgb(235,50,86);"/>
                    <path d="M281.075,332.013C280.164,332.427 279.081,332.439 278.12,331.955C276.433,331.105 275.754,329.045 276.604,327.359L277.567,326.182L278.268,325.746L279.118,325.435C281.076,324.893 290.096,323.981 293.316,323.176C305.155,320.217 315.362,316.606 325.717,310.053C327.313,309.043 329.429,309.519 330.439,311.115C331.449,312.711 330.973,314.826 329.377,315.836C318.378,322.797 307.552,326.672 294.976,329.816C292,330.56 282.315,331.85 281.075,332.013Z" style="fill:rgb(235,50,86);"/>
                    <path d="M354.02,353.416C353.108,354.068 349.343,356.756 348.183,357.492C343.113,360.713 337.762,363.508 332.257,365.907C316.862,372.615 298.256,372.061 281.885,369.727C258.111,366.338 233.187,358.93 216.099,340.774C206.893,330.992 202.343,319.981 197.068,307.943C193.597,300.022 183.851,277.576 182.411,269C182.098,267.138 183.356,265.372 185.218,265.059C187.081,264.746 188.847,266.004 189.16,267.867C190.542,276.096 200.005,297.595 203.336,305.196C208.289,316.496 212.441,326.901 221.083,336.083C237.097,353.099 260.571,359.775 282.851,362.952C298.014,365.114 315.264,365.846 329.523,359.633C334.704,357.375 339.742,354.746 344.514,351.715C346.174,350.661 350.839,347.213 351.742,346.895L352.602,346.7L353.336,346.699L354.297,346.941L355.072,347.383L356.012,348.47L356.314,349.208L356.442,350.143C356.442,351.683 355.421,352.988 354.02,353.416ZM351.193,353.036C350.235,352.429 349.598,351.36 349.598,350.143C349.598,351.561 350.194,352.481 351.193,353.036Z" style="fill:rgb(235,50,86);"/>
                    <path d="M196.224,287.744C197.063,289.436 196.371,291.491 194.679,292.33C192.988,293.17 190.933,292.478 190.093,290.786C180.99,272.435 177.247,244.341 171.16,224.948C168.386,216.11 165.219,205.895 158.395,199.278C152.971,194.02 145.777,191.597 138.77,189.26C133.519,187.508 128.133,186.229 122.583,186.229C120.695,186.229 119.161,184.695 119.161,182.807C119.161,180.918 120.695,179.385 122.583,179.385C128.872,179.385 134.985,180.783 140.936,182.768C148.908,185.427 156.988,188.383 163.158,194.365C170.781,201.755 174.591,213.027 177.69,222.899C183.682,241.99 187.262,269.678 196.224,287.744Z" style="fill:rgb(235,50,86);"/>
                    <path d="M123.357,188.386C121.469,188.386 119.935,186.853 119.935,184.964C119.935,183.076 121.469,181.542 123.357,181.542C127.165,181.542 130.65,184.581 132.98,189.805C137.075,198.986 138.366,215.001 137.913,219.761C134.287,257.941 117.137,292.23 115.103,330.778C114.111,349.582 115.668,363.996 120.362,376.378C127.424,395.003 141.551,408.962 164.147,426.474C173.571,433.778 215.301,450.883 222.588,452.555C224.428,452.978 225.58,454.815 225.157,456.656C224.735,458.497 222.898,459.648 221.057,459.226C213.435,457.477 169.812,439.523 159.954,431.883C136.103,413.397 121.417,398.465 113.963,378.804C108.98,365.662 107.216,350.377 108.269,330.418C110.307,291.772 127.465,257.39 131.1,219.114C131.5,214.9 130.355,200.721 126.73,192.593C126.092,191.162 125.396,189.938 124.563,189.093C124.188,188.714 123.826,188.386 123.357,188.386Z" style="fill:rgb(235,50,86);"/>
                    <path d="M211.65,397.465C211.397,396.987 211.253,396.442 211.253,395.864L211.364,394.989L211.744,394.083L212.261,393.422L212.83,392.964L214.049,392.48L215.275,392.472L216.278,392.816L217.02,393.342L217.818,394.451C218.097,395.05 219.511,399.719 219.654,400.568C220.361,404.744 220.91,408.976 221.311,413.191C222.446,425.105 222.747,436.96 222.747,448.922C222.747,485.593 222.012,521.668 214.505,557.647C214.119,559.496 212.305,560.684 210.456,560.298C208.607,559.912 207.419,558.098 207.805,556.249C215.216,520.734 215.903,485.12 215.903,448.922C215.903,437.178 215.612,425.538 214.498,413.84C214.112,409.789 213.586,405.723 212.906,401.71C212.814,401.162 212.014,398.521 211.65,397.465ZM215.029,399.268C215.697,399.221 216.311,398.976 216.858,398.499C216.351,398.92 215.72,399.197 215.029,399.268ZM217.558,397.708C217.808,397.343 218.097,396.76 218.097,395.864C218.097,396.543 217.899,397.176 217.558,397.708Z" style="fill:rgb(235,50,86);"/>
                    <path d="M332.345,455.619C332.365,459.201 332.081,462.819 331.502,466.291C329.815,476.412 325.527,483.603 319.664,488.25C310.961,495.148 298.573,496.502 285.248,492.816C271.055,488.89 260.493,478.755 251.899,466.573C243.705,454.958 237.298,441.496 230.962,430.338C226.834,423.066 223.44,415.392 219.559,407.986C218.298,405.58 216.952,403.223 215.668,400.831C215.588,400.683 214.732,399.287 214.309,398.599C213.48,397.974 212.944,396.981 212.944,395.864L213.249,394.404L213.977,393.347L214.695,392.8L215.551,392.452L217.043,392.4L218.13,392.792L219.013,393.474C219.683,394.157 221.521,397.265 221.697,397.593C222.993,400.005 224.349,402.383 225.621,404.809C229.466,412.147 232.823,419.754 236.914,426.959C243.148,437.939 249.428,451.199 257.491,462.627C265.154,473.489 274.418,482.719 287.073,486.22C298.025,489.25 308.26,488.556 315.413,482.886C320.121,479.155 323.397,473.293 324.751,465.165C325.519,460.558 325.706,455.662 325.278,451.011C325.233,450.525 324.118,445.267 323.998,444.152L323.999,443.154L324.341,442.044L324.844,441.304L325.505,440.73L326.709,440.228L328.037,440.217L328.887,440.497L329.714,441.058L330.299,441.724C331.376,443.112 336.649,450.171 337.102,450.676C339.84,453.723 343.971,458.04 348.527,460.323C350.924,461.524 353.439,462.184 355.863,461.238C357.841,460.467 359.383,458.754 360.642,456.583C362.151,453.981 363.209,450.729 363.865,447.233C365.09,440.712 364.91,433.347 363.316,427.507C362.389,424.113 361.048,421.239 359.046,419.637C357.571,418.457 357.331,416.302 358.511,414.827C359.691,413.352 361.846,413.113 363.321,414.293C366.268,416.651 368.554,420.707 369.919,425.705C371.761,432.453 372.007,440.962 370.592,448.497C368.876,457.63 364.542,465.199 358.35,467.614C354.105,469.27 349.657,468.544 345.461,466.442C340.311,463.861 335.55,459.15 332.345,455.619ZM219.344,397.55C219.595,397.141 219.788,396.598 219.788,395.864C219.788,396.477 219.626,397.053 219.344,397.55Z" style="fill:rgb(235,50,86);"/>
                    <path d="M414.085,411.194C414.116,412.631 414.109,414.07 414.068,415.508C413.905,421.154 413.697,430.998 410.989,438.612C408.852,444.624 405.158,449.26 399.428,450.656C391.81,452.513 385.295,449.582 379.897,444.68C375.114,440.336 371.245,434.421 368.266,429.695C366.394,426.724 364.429,423.864 362.21,421.136C361.798,420.629 360.903,419.409 360.288,418.561C358.92,418.113 357.93,416.825 357.93,415.308L358.02,414.397L358.325,413.5L359.278,412.289L359.985,411.835L360.776,411.561L361.663,411.481L362.66,411.655L363.606,412.107L364.615,412.97C365.468,413.875 366.798,415.931 367.519,416.818C369.913,419.76 372.037,422.842 374.056,426.046C376.745,430.312 380.181,435.693 384.499,439.614C388.202,442.978 392.58,445.281 397.807,444.007C401.315,443.152 403.233,439.999 404.541,436.32C407.001,429.401 407.079,420.442 407.227,415.311C407.316,412.221 407.235,409.128 406.921,406.052C406.85,405.352 406.225,404.292 405.976,403.472L405.679,401.668L405.878,400.375L406.445,399.259L407.476,398.292L408.432,397.851L409.681,397.667L410.495,397.749L411.412,398.04C411.991,398.293 412.721,398.772 413.49,399.498C415.873,401.75 419.601,407.476 420.67,408.569C424.469,412.451 428.378,415.881 432.284,417.975C435.522,419.711 438.715,420.534 441.782,419.418C444.587,418.398 447.158,415.874 449.64,411.622C451.504,408.428 452.546,404.713 453.527,401.172C455.006,395.833 455.703,390.42 455.909,384.897C455.98,383.01 457.569,381.535 459.456,381.605C461.344,381.676 462.819,383.265 462.748,385.153C462.522,391.21 461.745,397.144 460.122,403C458.986,407.1 457.709,411.374 455.551,415.072C450.76,423.28 445.238,426.463 439.692,426.747C431.956,427.143 423.53,421.276 415.779,413.356C415.437,413.007 414.831,412.205 414.085,411.194Z" style="fill:rgb(235,50,86);"/>
                    <path d="M458.443,383.132C457.469,382.528 456.82,381.45 456.82,380.221L457.071,378.916L457.921,377.675L459.14,376.94L460.286,376.747L461.283,376.895L462.26,377.357C462.715,377.66 464.005,379.114 464.241,379.369C465.305,380.517 466.427,381.621 467.56,382.7C470.667,385.662 474.429,388.033 478.192,390.063C482.385,392.324 489.749,394.82 496.071,394.794C499.144,394.781 501.986,394.255 503.709,392.307C504.787,391.087 505.318,389.329 505.318,386.97C505.318,379.369 501.403,373.389 495.876,368.651C486.841,360.905 473.577,356.394 463.879,353.971C429.649,345.419 393.626,365.388 365.123,384.034C354.506,390.979 339.171,407.391 328.718,414.495C327.156,415.557 325.026,415.15 323.964,413.588C322.902,412.026 323.309,409.896 324.871,408.835C335.351,401.713 350.733,385.269 361.376,378.307C391.382,358.679 429.505,338.328 465.538,347.331C476.102,349.971 490.488,355.018 500.331,363.455C507.39,369.507 512.162,377.261 512.162,386.97C512.162,391.377 510.851,394.56 508.836,396.84C506.808,399.134 503.998,400.553 500.716,401.203C492.483,402.835 480.963,399.334 474.943,396.086C470.651,393.771 466.383,391.033 462.838,387.655C461.603,386.477 460.381,385.273 459.22,384.02C459.138,383.931 458.72,383.451 458.443,383.132ZM463.333,381.691C463.525,381.307 463.664,380.828 463.664,380.221C463.664,380.747 463.545,381.246 463.333,381.691Z" style="fill:rgb(235,50,86);"/>
                    <path d="M345.656,390.559C345.892,390.337 346.164,390.145 346.468,389.993L347.753,389.64L348.778,389.721L349.705,390.087L350.639,390.876L348.662,395.068C348.756,395.199 348.845,395.322 348.927,395.434L351.398,392.663L351.31,393.917L350.911,394.85L350.351,395.539C350.31,395.578 350.062,395.803 349.641,396.182C345.839,399.603 326.508,416.907 324.433,418.684C316.244,425.7 309.186,433.557 299.731,438.987C272.119,454.843 248.052,464.769 216.896,457.221C215.06,456.777 213.931,454.925 214.376,453.09C214.82,451.254 216.672,450.125 218.507,450.57C247.806,457.667 270.357,447.963 296.322,433.052C305.401,427.839 312.118,420.223 319.98,413.487C322.045,411.718 341.28,394.499 345.064,391.094C345.385,390.805 345.656,390.559 345.656,390.559Z" style="fill:rgb(235,50,86);"/>
                    <path d="M146.332,232.537C146.22,232.199 146.159,231.837 146.159,231.46L146.231,230.496L146.47,229.615L146.882,228.839L147.398,228.243L148.275,227.643L149.362,227.317L150.556,227.36L151.708,227.807C152.257,228.132 153.287,229.191 154.132,230.821C155.411,233.288 156.69,237.22 156.69,238.291C156.69,238.883 156.642,239.346 156.577,239.697L156.183,240.905L155.419,241.954L154.462,242.624L153.448,242.94L152.464,242.959L151.153,242.554L150.152,241.826C149.562,241.257 148.727,239.976 148.028,238.491C147.113,236.545 146.38,234.271 146.298,233.529C146.26,233.19 146.274,232.857 146.332,232.537Z" style="fill:rgb(235,50,86);"/>
                </g>
            </g>
            <g id="Guías">
            </g>
        </g>
    </g>
</svg>
